<?xml version="1.0" encoding="UTF-8"?>
<svg id="Capa_1" data-name="Capa 1" xmlns="http://www.w3.org/2000/svg" viewBox="0 0 1146.36 1906.69">
  <defs>
    <style>
      .cls-1 {
        fill: #f18c82;
      }

      .cls-2 {
        fill: #f3988b;
      }

      .cls-3 {
        fill: #112033;
      }

      .cls-4 {
        fill: #f3978a;
      }

      .cls-5 {
        fill: #724010;
      }

      .cls-6 {
        fill: #009fe3;
      }

      .cls-7 {
        fill: #ed6d7b;
      }

      .cls-8 {
        fill: #0b1623;
      }

      .cls-9 {
        fill: #f7efec;
      }

      .cls-10 {
        fill: #230d0d;
      }
    </style>
  </defs>
  <path class="cls-6" d="m886.83,158.92l-.96.7c-2.6,1.91-5.13,3.94-7.63,6.01,10.3-5.78,20.8-11.2,31.51-16.17.22-.1.44-.19.66-.29l-3.6-6.36c-6.44,5.66-13.06,11.15-19.97,16.11Z"/>
  <path class="cls-6" d="m951.88,222.45l-14.42-25.48c-6.89,2.01-13.95,3.43-21.1,4.15-1.5,8.37-1.43,39-15.39,36.6-4.71-.81-7.15-5.93-8.84-10.4l-7.62-20.14c1.59,8.65.92,17.7-1.95,26.02-.91,2.63-2.32,5.47-4.98,6.3-2.4.75-5.06-.49-6.7-2.39-1.65-1.9-2.48-4.35-3.26-6.74-3.48-10.63-14.64-35.43-9.36-49.31,0,0-.01,0-.02.01-4.02,2.52-8.45,4.62-13.18,5.01-2.81.23-11.31-.67-12.27-4.31-1.31-4.96,11.75-17.19,14.54-20.13,8.42-8.87,16.84-17.75,25.26-26.62,5.29-5.58,10.59-11.17,16.4-16.21.92-.8,1.9-1.58,2.9-2.34l-.69-1.21c-3.72,3.37-9.07,6.69-11.68,8.69-5.39,4.13-11.01,7.95-16.75,11.57-10.44,6.57-23.09,15.5-35.49,17.43-2.32.36-4.75.47-6.96-.32-2.21-.79-4.16-2.65-4.51-4.97-.27-1.87.47-3.62,1.57-5.22.67-.98,1.48-1.9,2.26-2.75,18.95-20.65,29.71-41.12,52.1-58.74.03.03.06.06.09.1l-.11-.2L825.97,0l-112.45,63.65,125.92,222.45,76.42-43.26,36.02-20.39Zm-205.61-144.76c-2.61,3.43-7.56,4.11-11,1.5-3.43-2.61-4.11-7.56-1.5-10.99,2.61-3.43,7.56-4.11,10.99-1.5,3.43,2.61,4.11,7.56,1.5,10.99Z"/>
  <path class="cls-9" d="m744.77,66.7c-3.43-2.61-8.38-1.94-10.99,1.5-2.61,3.44-1.94,8.38,1.5,10.99,3.43,2.61,8.38,1.94,11-1.5,2.61-3.43,1.93-8.38-1.5-10.99Z"/>
  <path class="cls-2" d="m574.03,722.86c-2.03,11.44-4.05,22.89-6.08,34.33l52.93,161.92,525.48-208.41-139.22-447.41-.49.03c-2.23-5.93-5.32-12.81-5.64-13.92-2.74-9.34-3.76-19.58-5.79-29.13-4.47-20.99-9.52-41.85-15.16-62.56-1.25-4.58-2.57-9.25-5.28-13.15-6.01-8.64-17.27-11.55-27.61-13.53-.29-7.61-1.67-15.18-4.09-22.41-2.22-6.63-6.41-13.81-13.34-14.68-4.49-.56-9.93,1.49-13.04-1.8-1.02-1.08-1.52-2.55-1.99-3.97-1.43-4.37-2.58-8.94-4.39-13.17-1.76-4.11-4.67-6.38-9.33-6.69-3.27-.22-6.53.64-9.63,1.71-6.29,2.17-12.25,5.29-17.62,9.21-.68.5-1.36,1.02-2.01,1.57l.11.2s-.06-.06-.09-.1c-22.39,17.62-33.15,38.09-52.1,58.74-.78.85-1.59,1.77-2.26,2.75-1.1,1.6-1.84,3.34-1.57,5.22.35,2.32,2.29,4.18,4.51,4.97,2.21.79,4.64.68,6.96.32,12.4-1.92,25.06-10.85,35.49-17.43,5.74-3.62,11.36-7.44,16.75-11.57,2.61-2,7.96-5.32,11.68-8.69l.69,1.21c-1,.76-1.98,1.54-2.9,2.34-5.81,5.04-11.11,10.63-16.4,16.21-8.42,8.87-16.84,17.75-25.26,26.62-2.79,2.94-15.85,15.17-14.54,20.13.96,3.64,9.46,4.54,12.27,4.31,4.73-.39,9.15-2.49,13.18-5.01,0,0,.01,0,.02-.01-5.28,13.88,5.88,38.69,9.36,49.31.78,2.39,1.62,4.84,3.26,6.74,1.64,1.9,4.31,3.14,6.7,2.39,2.66-.83,4.07-3.67,4.98-6.3,2.86-8.31,3.54-17.37,1.95-26.02l7.62,20.14c1.69,4.47,4.14,9.59,8.84,10.4,13.96,2.4,13.89-28.23,15.39-36.6,7.14-.72,14.21-2.13,21.1-4.15l14.42,25.48-36.02,20.39c4.96,2.12,8.12,3.36,8.13,3.36,1.34,9.4,6.72,46.94,7.57,52.9l46.37,345.11-293.58,46.55c-28.08,3.89-73.54,13.5-110.29,26.75.54,1.64.28,3.58-.03,5.35ZM909.75,149.46c-10.71,4.97-21.21,10.39-31.51,16.17,2.51-2.07,5.03-4.1,7.63-6.01l.96-.7c6.91-4.96,13.53-10.45,19.97-16.11l3.6,6.36c-.22.1-.44.19-.66.29Z"/>
  <polygon class="cls-9" points="133.81 1807.44 128.91 1850.2 520.58 1906.69 729.6 1782.41 720.8 1740.08 491.55 1820.43 133.81 1807.44"/>
  <path class="cls-2" d="m374.48,1017.03l33.4-212.3c1.1-12.96,2.29-24.85,2.6-27.06,5.09-36.38,9.55-76.6,28.42-108.75l-18.16-49.21c-7.47-.47-14.92-1.07-22.35-1.69-22.17-1.83-44.57-3.73-65.71-10.67-14.8-4.86-27.66-12.92-39.24-22.67-.16.15-.27.34-.44.49-2.86,2.52-6.01,4.2-9.3,5.32v152.07l-108.26,63.05c55.23,81.12,113.71,161.12,199.02,211.42Z"/>
  <path class="cls-2" d="m521,990.43c30.52-67.15,22.28-146.08-.97-218.68-6.27,8.66-10.49,17.17-14.85,26.87-3.59,8-5.67,15.13-7.15,22.29l-6.34,202.68c12.44-7.78,22.81-18.73,29.31-33.16Z"/>
  <path class="cls-5" d="m168.57,904.14c20.13,12.17,39.4,26.07,48.55,35.33l142.39,144.12,3.61,5.61,11.35-72.17c-85.32-50.3-143.79-130.3-199.02-211.42l-131.26,76.45,32.72-1.29c32.17-1.27,64.1,6.71,91.65,23.37Z"/>
  <path class="cls-5" d="m566.4,765.94c-3.39,2.63-5.53,6.51-8.35,9.76-2.82,3.24-6.96,6-11.15,5.08-5.17-1.14-7.68-7.55-6.49-12.71,1.18-5.16,4.94-9.28,8.56-13.14-1.61-3.4-3.22-6.8-4.82-10.2.23.48-21.17,22.97-23.09,25.53-.38.5-.67.99-1.03,1.49,23.26,72.61,31.49,151.53.97,218.68-6.5,14.43-16.87,25.38-29.31,33.16l-7.73,247.06c-.12,2.86-2.05,4.86-4.38,5.54l-20.18,12.47c-33.26,5.22-80.77,9.54-106.51-12.17l-291.32-189.72,54.99,159.93,13.21,38.41,20.96,112.54-39.55,408.97,22.63.82,357.74,12.99,229.25-80.35,39.4-13.81-72.9-499.63-30.46-197.52-35.96-110.02-52.93-161.92c-.52,2.92-1.03,5.83-1.55,8.75Z"/>
  <path class="cls-7" d="m449.82,249.61c-3.3-4.3-7-8.75-10.97-13.13-2.34,19.66-9.6,38.72-21.05,54.88-1.88,2.65-4.27,5.46-7.52,5.67.09-11.51-2.29-23.03-6.96-33.55-2.29,26.4-14.58,47.55-29.62,68.63-6.72,9.43-14.23,18.36-23.1,25.84-3.53,2.97-8.45,5.82-12.47,3.56,2.86-9.67,5.71-19.34,8.31-29.09,2.87-10.77,5.35-22.64.59-32.72-.03,24.34-11.77,42.55-27.26,60.1-9.19,10.41-18.55,20.95-24.6,33.45-7.21,14.88-9.3,32.18-5.87,48.35-12.18-8.52-21.68-20.82-26.82-34.77,5.5,15.88,8.33,32.64,8.59,49.43l21.17-11.59c6.42-12.67,13.61-25.09,22.25-36.91,39.59-57.18,120.47-88.79,135.33-158.17Z"/>
  <path class="cls-7" d="m270.69,470.74c-.8,10.84-2.87,21.38-5.63,31.88-.22.84-.38,1.65-.53,2.46.18.22.36.44.55.66,7.03-16.17,13.72-32.76,21.35-49.09l-15.45,8.38c-.07,1.91-.14,3.81-.28,5.71Z"/>
  <path class="cls-4" d="m370.39,485.34c30.12.42,59.05-20.45,60.48-38.92.94-12.14-20.92-55.86-20.92-55.86l-22.2,11.35c.08.27.2.53.26.8.43,1.98.15,4.45-1.72,5.47-1.05.57-2.32.52-3.52.45-2.5-.14-5.04-.23-7.59-.29l-55.63,28.46s20.75,48.11,50.84,48.53Zm-3.47-38.73c3.75-6.2,10.76-10.91,17.58-11.38,4.72-.32,9.53,1.24,13.17,4.26,1.29,1.07,2.51,2.58,2.21,4.22-.35,1.87-2.46,2.8-4.31,3.24-3.46.83-7.06,1.05-10.44,2.17-5.4,1.79-9.78,5.71-14.13,9.38-1.14.95-2.48,1.96-3.94,1.73-2.22-.35-3.02-3.17-2.86-5.41.19-2.86,1.18-5.67,2.72-8.22Z"/>
  <path class="cls-4" d="m487.39,424.56c10.09.14,18.09-1.34,24.38-4.03-3.29-4.75-6.7-9.43-9.7-14.34-10.56-17.3-3.24-36.33-6.12-55.28-.16-1.06-.39-2.11-.58-3.17l-46.23,22.23c-1.29,1.41-2.57,2.83-3.8,4.26-.62.73-1.3,1.49-2.24,1.72-1.22.28-2.44-.43-3.39-1.44l-3.15,1.51s20.75,48.11,50.84,48.53Zm-26.32-36.48c.51-2,2-3.88,4.02-4.27,7.57-1.47,11.34,13.3,12.95,18.36,1.54,4.84,3,11.74-3.43,13.54-3.67,1.03-6.34-3.54-7.82-6.3-2.56-4.76-4.42-9.9-5.51-15.19-.42-2.02-.72-4.14-.21-6.14Z"/>
  <path class="cls-4" d="m466.11,274.53c-3.15-5.66-6.5-11.21-10.18-16.54-1.85-2.68-3.89-5.49-6.1-8.38-14.86,69.38-95.75,100.99-135.33,158.17-8.64,11.82-15.83,24.24-22.25,36.91l17.35-9.5,49.27-26.2c-3.46.38-6.9.89-10.26,1.71-6.48,1.59-12.76,3.88-18.87,6.49-2.35,1.01-9.25,5.86-11.42,3.51-1.92-2.08.4-6.51,1.84-8.22,6.48-7.67,16.29-14.96,25.92-18.45,8.63-3.13,17.94-3.4,27.01-3.45,4.11-.02,8.09,2.02,10.96,5.02l27.16-14.44s8.44,15.86,15.57,32.9c7.79-7.73,14.33-8.88,18.02-8.7-9.48-12.51-13.26-24.73-13.26-24.73l-2.46-7.54,7.9-4c-1.13-4.48-.32-9.48,2.58-12.43,5.08-5.17,10.44-10.33,17.19-13.19,7.54-3.2,17.52-3.98,25.88-2.59,1.33.22,3.75,1.12,5.11,2.52l6.08-3.08c-1.15-4.81-2.54-9.55-4.14-14.24-3.7-10.86-8.39-21.42-13.35-31.7-3.23-6.7-6.59-13.36-10.21-19.86Z"/>
  <path class="cls-3" d="m426.03,177.8c-3.33-4.49-7.29-8.48-11.99-11.74-5.2-3.61-11.06-6.2-17.1-8.11-17.98-5.67-37.45-5.27-55.94-1.6-18.49,3.67-36.19,10.5-53.66,17.58-50.55,20.48-102.65,52.02-131.49,99.89-27.47,45.61-31.87,104.04-12.94,153.66,103.06-66.04,232.3-139.36,283.12-249.7Z"/>
  <path class="cls-8" d="m214.26,473.37c7.79.95,14.84,3.29,21.32,6.69,11.04,5.79,20.39,14.69,28.94,25.01.15-.81.31-1.62.53-2.46,2.76-10.5,4.83-21.03,5.63-31.88.14-1.9.21-3.81.28-5.71l15.45-8.38,28.12-15.24s12.56,40.81,49.64,49.59c37.07,8.8,72.13-24.44,72.3-43.27.05-6.78-3.22-17.31-7.41-28.01,2.68-2.98,9.41-9.08,19.74-9.46,7.67,8.62,18.23,16.62,32.36,19.96,14.17,3.36,25.91,1.57,35.05-2.95,14.77-7.31,22.7-21.79,22.81-33.43.15-18.83-19.7-66.43-19.7-66.43l-25.52,12.92-6.08,3.08c-1.36-1.39-3.78-2.29-5.11-2.52-8.36-1.39-18.34-.61-25.88,2.59-6.75,2.86-12.11,8.02-17.19,13.19-2.9,2.95-3.71,7.95-2.58,12.43l-7.9,4,2.46,7.54s3.78,12.22,13.26,24.73c-3.69-.18-10.23.97-18.02,8.7-7.13-17.04-15.57-32.9-15.57-32.9l-27.16,14.44c-2.87-3-6.85-5.04-10.96-5.02-9.06.04-18.38.32-27.01,3.45-9.63,3.49-19.45,10.78-25.92,18.45-1.44,1.71-3.76,6.15-1.84,8.22,2.17,2.35,9.07-2.5,11.42-3.51,6.11-2.61,12.39-4.9,18.87-6.49,3.36-.82,6.8-1.33,10.26-1.71l-49.27,26.2-17.35,9.5-21.17,11.59c-.26-16.8-3.09-33.55-8.59-49.43,5.14,13.94,14.64,26.25,26.82,34.77-3.43-16.17-1.34-33.47,5.87-48.35,6.05-12.5,15.41-23.04,24.6-33.45,15.49-17.55,27.23-35.76,27.26-60.1,4.76,10.08,2.28,21.95-.59,32.72-2.6,9.74-5.45,19.42-8.31,29.09,4.02,2.27,8.94-.58,12.47-3.56,8.87-7.48,16.38-16.42,23.1-25.84,15.04-21.08,27.32-42.24,29.62-68.63,4.66,10.52,7.05,22.04,6.96,33.55,3.24-.21,5.64-3.02,7.52-5.67,11.45-16.16,18.71-35.22,21.05-54.88,3.98,4.38,7.67,8.83,10.97,13.13,2.21,2.88,4.26,5.7,6.1,8.38,3.68,5.33,7.03,10.88,10.18,16.54,3.62,6.5,6.98,13.16,10.21,19.86,4.96,10.27,9.65,20.83,13.35,31.7,4.77-6.37,8.59-13.53,12.02-20.74,6.78-14.27,12.4-29.32,13.95-45.04,1.55-15.72-1.27-32.26-10.2-45.29-8.64-12.6-22.54-21.12-37.39-24.7-9.27-2.24-23.1-3.43-35.41-1.16-1.82-4.03-4.01-7.86-6.61-11.36-50.82,110.34-180.06,183.65-283.12,249.7,2.96,7.76,6.47,15.31,10.57,22.56,7.12,12.58,15.81,24.23,25.43,35,2.33,2.61,5.01,5.84,7.89,9.15,3.39-12.04,14.31-22.45,27.46-20.84Zm222.29-97.33l3.15-1.51c.96,1.01,2.18,1.73,3.39,1.44.94-.22,1.62-.98,2.24-1.72,1.23-1.43,2.5-2.85,3.8-4.26l46.23-22.23,20.8-10s15.56,42.87,14.63,55.02c-.95,12.28-6.55,22.44-19.02,27.77-6.28,2.69-14.28,4.17-24.38,4.03-30.09-.42-50.84-48.53-50.84-48.53Zm-61.36,32.32c2.54.06,5.08.15,7.59.29,1.19.07,2.47.12,3.52-.45,1.87-1.02,2.15-3.49,1.72-5.47-.06-.27-.18-.53-.26-.8l22.2-11.35s21.86,43.71,20.92,55.86c-1.42,18.46-30.36,39.33-60.48,38.92-30.09-.42-50.84-48.53-50.84-48.53l55.63-28.46Z"/>
  <path class="cls-7" d="m268.81,559.07c1.2.68,2.76,1.3,3.88.49l.34-.31.65-1.11c2.74-6.3.64-13.65-2.4-19.81-7.23-14.64-19.21-28.63-32.84-37.5-5.16-3.36-11.12-6.17-17.25-5.54-8.26.85-14.24,10.05-13.01,18.05.47,3.05,1.95,5.87,3.75,8.38-.19-3.43-.21-6.98,1.1-10.16,2.56-6.25,9.24-7.06,14.36-3.43,5.61,3.97,10.24,8.73,11.59,15.75.21,1.1.35,2.25.93,3.21.62,1.02,1.67,1.71,2.76,2.19,3.12,1.37,6.72,1.33,9.82,2.74,6.63,3.02,6.98,9.84,5.72,16.06-.17.81-.35,1.66-.06,2.44.22.59.68,1.05,1.13,1.48,2.88,2.73,6.09,5.11,9.53,7.08Z"/>
  <path class="cls-7" d="m482.7,458.73c-13.15-7.74-25.2-15.09-33.61-27.71-.5-.75-1.01-1.54-1.84-1.97-.82-.44-2.06-.4-2.72.35-.33.37-.47.83-.57,1.29-1.17,5.43,2.24,11.6,5.13,15.72,4.61,6.56,11.32,11.51,18.38,15.76,3.85,2.32,7.9,4.49,10.94,7.67,3.54,3.7,4.76,7.73,3.14,12.68-1.51,4.58-3.29,11.5-.21,15.43,4.1-5.14,7.6-10.67,10.41-16.44,1.46-3,2.76-6.2,2.52-9.34-.46-5.81-5.75-10-11.57-13.42Z"/>
  <path class="cls-9" d="m401.57,547.13s32.54,11.03,56.92-9.68c7.08-6.01,22.52-15.15,23.35-21.85.31-2.53,1.04-5.08,1.42-7.88l-92.71,33.08,11.02,6.33Z"/>
  <path class="cls-10" d="m466.79,409.41c1.48,2.76,4.15,7.33,7.82,6.3,6.43-1.8,4.97-8.7,3.43-13.54-1.61-5.06-5.38-19.83-12.95-18.36-2.03.39-3.52,2.27-4.02,4.27-.51,2.01-.21,4.12.21,6.14,1.09,5.29,2.95,10.43,5.51,15.19Z"/>
  <path class="cls-10" d="m367.06,460.24c1.47.23,2.81-.78,3.94-1.73,4.35-3.67,8.73-7.58,14.13-9.38,3.38-1.12,6.98-1.35,10.44-2.17,1.86-.44,3.96-1.37,4.31-3.24.31-1.64-.92-3.16-2.21-4.22-3.63-3.02-8.45-4.58-13.17-4.26-6.82.47-13.84,5.18-17.58,11.38-1.54,2.55-2.53,5.35-2.72,8.22-.16,2.24.64,5.06,2.86,5.41Z"/>
  <path class="cls-1" d="m352.89,1276.49c25.73,21.71,73.25,17.39,106.51,12.17l20.18-12.47c2.33-.68,4.27-2.68,4.38-5.54l7.73-247.06,6.34-202.68c1.48-7.16,3.56-14.29,7.15-22.29,4.35-9.7,8.57-18.21,14.85-26.87.36-.5.66-.99,1.03-1.49,1.92-2.56,23.32-25.05,23.09-25.53,1.61,3.4,3.22,6.8,4.82,10.2-3.62,3.86-7.38,7.99-8.56,13.14-1.19,5.16,1.32,11.57,6.49,12.71,4.19.92,8.34-1.84,11.15-5.08,2.82-3.24,4.96-7.13,8.35-9.76.52-2.92,1.03-5.83,1.55-8.75,2.03-11.44,4.05-22.89,6.08-34.33.31-1.76.57-3.71.03-5.35-.17-.51-.4-.99-.74-1.43-1.17-1.48-3.15-1.98-4.8-2.89-4.35-2.39-6.34-7.55-7.23-12.44-.88-4.88-1.02-10-3.14-14.49-3.81-8.07-12.15-7.12-16.8-12.43-5.37-6.14-7.26-18.79-11.32-26.23-1.25-2.28-2.73-4.67-5.14-5.64-2.37-.95-5.05-.28-7.49.47-4.89,1.5-9.67,3.84-14.53,5.12,3.29-.87,11.29-14.61,14.3-17.69,6.78-6.96,14.59-13.13,21.82-19.64,5.06-4.56,13.65-10.75,16.62-17.15,2.19-4.7,1.25-9.78-3.74-11.82-5.39-2.21-9.84,1.95-14.24,4.66-7.91,4.87-15.71,9.93-23.45,15.08,4.46-4.97,7.64-11.03,8.78-18.31,3.99-25.71,3.17-53.12,4.69-79.11,1.24-21.32,2.39-43.33-4.92-63.39-1.67-4.59-3.95-8.83-6.5-12.92-9.14,4.52-20.88,6.32-35.05,2.95-14.13-3.34-24.69-11.34-32.36-19.96-10.33.38-17.06,6.47-19.74,9.46,4.19,10.7,7.46,21.23,7.41,28.01-.17,18.83-35.23,52.07-72.3,43.27-37.08-8.78-49.64-49.59-49.64-49.59l-28.12,15.24c-7.63,16.33-14.32,32.91-21.35,49.09-.18-.22-.36-.44-.55-.66-8.55-10.32-17.9-19.22-28.94-25.01-6.48-3.4-13.53-5.74-21.32-6.69-13.15-1.61-24.07,8.8-27.46,20.84-.09.33-.2.65-.28.98-5.25,21.36,5.89,42.05,19.12,58.15,13.06,15.89,30.39,28.34,49.78,35.27l.58.2c8.97,3.18,18.9,4.65,27.72,1.67,3.29-1.11,6.44-2.8,9.3-5.32.17-.15.27-.33.44-.49,11.58,9.75,24.44,17.81,39.24,22.67,21.13,6.95,43.54,8.84,65.71,10.67,7.43.62,14.89,1.22,22.35,1.69,20.62,1.3,41.28,1.52,61.51-2.29,4.71-.89,9.42-2.25,13.89-4.11-15.43,10.9-30.55,22.44-43.26,36.41-5.42,5.95-10,12.4-13.99,19.19-18.87,32.15-23.33,72.37-28.42,108.75-.31,2.21-1.5,14.1-2.6,27.06l-33.4,212.3-11.35,72.17-3.61-5.61-142.39-144.12c-9.15-9.26-28.42-23.16-48.55-35.33-27.55-16.66-59.48-24.64-91.65-23.37l-32.72,1.29-2.79.11S2.38,911.13.07,957.76c-1.94,39.31,35.25,106.87,61.49,129.01h0s291.32,189.72,291.32,189.72Zm-94.74-725.98c-.28-.77-.1-1.63.06-2.44,1.26-6.22.91-13.04-5.72-16.06-3.1-1.41-6.7-1.37-9.82-2.74-1.09-.48-2.14-1.17-2.76-2.19-.58-.96-.72-2.11-.93-3.21-1.35-7.03-5.97-11.78-11.59-15.75-5.12-3.62-11.8-2.81-14.36,3.43-1.31,3.18-1.29,6.73-1.1,10.16-1.8-2.51-3.28-5.33-3.75-8.38-1.23-8,4.75-17.2,13.01-18.05,6.13-.63,12.09,2.18,17.25,5.54,13.63,8.87,25.61,22.86,32.84,37.5,3.04,6.16,5.14,13.51,2.4,19.81l-.65,1.11-.34.31c-1.12.81-2.68.19-3.88-.49-3.44-1.97-6.66-4.35-9.53-7.08-.45-.43-.91-.89-1.13-1.48Zm223.7-34.92c-.83,6.7-16.27,15.84-23.35,21.85-24.38,20.71-56.92,9.68-56.92,9.68l-11.02-6.33,92.71-33.08c-.38,2.8-1.11,5.35-1.42,7.88Zm9.91-34.1c-2.81,5.77-6.31,11.3-10.41,16.44-3.08-3.93-1.3-10.85.21-15.43,1.63-4.95.4-8.99-3.14-12.68-3.04-3.18-7.09-5.36-10.94-7.67-7.06-4.25-13.76-9.2-18.38-15.76-2.89-4.12-6.3-10.28-5.13-15.72.1-.45.24-.92.57-1.29.67-.75,1.9-.78,2.72-.35.82.44,1.34,1.22,1.84,1.97,8.41,12.62,20.46,19.98,33.61,27.71,5.82,3.42,11.11,7.61,11.57,13.42.24,3.14-1.06,6.34-2.52,9.34Z"/>
</svg>